<svg width="20" height="20" viewBox="0 0 20 20" fill="none" xmlns="http://www.w3.org/2000/svg">
<path d="M13.3334 3.33333H15C15.4421 3.33333 15.866 3.50892 16.1786 3.82148C16.4911 4.13404 16.6667 4.55797 16.6667 4.99999V16.6667C16.6667 17.1087 16.4911 17.5326 16.1786 17.8452C15.866 18.1577 15.4421 18.3333 15 18.3333H5.00004C4.55801 18.3333 4.13409 18.1577 3.82153 17.8452C3.50897 17.5326 3.33337 17.1087 3.33337 16.6667V4.99999C3.33337 4.55797 3.50897 4.13404 3.82153 3.82148C4.13409 3.50892 4.55801 3.33333 5.00004 3.33333H6.66671" stroke="white" stroke-width="1.5" stroke-linecap="round" stroke-linejoin="round"/>
<path d="M7 13L13 13" stroke="white" stroke-width="1.5" stroke-linecap="round" stroke-linejoin="round"/>
<path d="M7 10L13 10" stroke="white" stroke-width="1.5" stroke-linecap="round" stroke-linejoin="round"/>
<path d="M12.5 1.66667H7.49996C7.03972 1.66667 6.66663 2.03977 6.66663 2.50001V4.16667C6.66663 4.62691 7.03972 5.00001 7.49996 5.00001H12.5C12.9602 5.00001 13.3333 4.62691 13.3333 4.16667V2.50001C13.3333 2.03977 12.9602 1.66667 12.5 1.66667Z" stroke="white" stroke-width="1.5" stroke-linecap="round" stroke-linejoin="round"/>
</svg>
