<svg width="100" height="100" viewBox="0 0 100 100" fill="none" xmlns="http://www.w3.org/2000/svg">
<g clip-path="url(#clip0)">
<path d="M82.5487 44.0948V92.72C82.5487 96.7407 79.2894 99.9998 75.2689 99.9998H15.463C11.4423 99.9998 8.18311 96.7405 8.18311 92.72V16.5475C8.18311 12.5258 11.4433 9.26762 15.463 9.26762H47.7206L82.5487 44.0948Z" fill="#BED8FB"/>
<path d="M24.7306 90.7324C20.7099 90.7324 17.4507 87.473 17.4507 83.4525V7.27988C17.4505 3.2582 20.7106 0 24.7306 0H56.988C62.5339 0 91.8161 29.282 91.8161 34.8273V83.4525C91.8161 87.4732 88.5567 90.7324 84.5362 90.7324H24.7306Z" fill="#DDEAFB"/>
<path d="M91.8161 34.8279V37.9074C91.8161 31.424 86.5587 26.1666 80.0753 26.1666H72.9294C68.9097 26.1666 65.6495 22.9064 65.6495 18.8867V11.7408C65.6495 5.25742 60.3921 0 53.9087 0H56.9882C62.5331 0 67.8528 2.20312 71.7735 6.12402L85.6923 20.0428C89.6128 23.9635 91.8161 29.283 91.8161 34.8279V34.8279Z" fill="#BED8FB"/>
<path d="M40.2392 72.5683H66.1485C67.9378 72.5683 69.3882 71.1179 69.3882 69.3287V69.2396C69.3882 67.4503 67.9378 66 66.1485 66H40.2392C38.4499 66 36.9995 67.4503 36.9995 69.2396V69.3287C36.9995 71.1177 38.4499 72.5683 40.2392 72.5683Z" fill="#80B4FB"/>
<path d="M42 44L51 54.5L72 37" stroke="#37D1C4" stroke-width="5" stroke-linecap="round" stroke-linejoin="round"/>
</g>
<defs>
<clipPath id="clip0">
<rect width="100" height="100" fill="white"/>
</clipPath>
</defs>
</svg>
