<svg width="20" height="20" viewBox="0 0 20 20" fill="none" xmlns="http://www.w3.org/2000/svg">
<path d="M19.4871 4.89533V19.3929H9.69641V4.89533C9.69641 4.25247 9.82303 3.6159 10.069 3.02197C10.3151 2.42804 10.6756 1.88839 11.1302 1.43381C11.5848 0.979238 12.1245 0.618648 12.7184 0.372634C13.3123 0.12662 13.9489 0 14.5917 0C15.2346 0 15.8712 0.12662 16.4651 0.372634C17.059 0.618648 17.5987 0.979238 18.0533 1.43381C18.5078 1.88839 18.8684 2.42804 19.1144 3.02197C19.3605 3.6159 19.4871 4.25247 19.4871 4.89533V4.89533Z" fill="#606060"/>
<path d="M19.3929 9.69666V19.4873H4.89534C3.59701 19.4873 2.35186 18.9716 1.43381 18.0535C0.515756 17.1355 0 15.8903 0 14.592C0 13.2937 0.515756 12.0485 1.43381 11.1305C2.35186 10.2124 3.59701 9.69666 4.89534 9.69666H19.3929Z" fill="#606060"/>
<path d="M19.487 9.69668V19.3931H19.3928V19.4873H9.69641V9.69659L19.487 9.69668Z" fill="white"/>
<path d="M15.6274 11.7677H13.5563V17.4161H15.6274V11.7677Z" fill="#606060"/>
<path d="M17.416 15.6275V13.5564H11.7676V15.6275H17.416Z" fill="#606060"/>
</svg>
