<svg width="24" height="24" viewBox="0 0 24 24" fill="none" xmlns="http://www.w3.org/2000/svg">
<path d="M23.0625 17.4375C23.5803 17.4375 24 17.0178 24 16.5V8.90625C24 6.83844 22.3178 5.15625 20.25 5.15625H16.875V3.75C16.875 1.68219 15.1928 0 13.125 0H3.75C1.68219 0 0 1.68219 0 3.75V21.1875C0 22.7384 1.2616 24 2.8125 24H6.5625C7.08032 24 7.5 23.5803 7.5 23.0625V20.1562H9.375V23.0625C9.375 23.5803 9.79468 24 10.3125 24H21.1875C22.7384 24 24 22.7384 24 21.1875C24 20.6697 23.5803 20.25 23.0625 20.25C22.5447 20.25 22.125 20.6697 22.125 21.1875C22.125 21.7044 21.7044 22.125 21.1875 22.125H16.7144C16.8184 21.8317 16.875 21.516 16.875 21.1875V7.03125H20.25C21.2838 7.03125 22.125 7.87244 22.125 8.90625V16.5C22.125 17.0178 22.5447 17.4375 23.0625 17.4375ZM15 21.1875C15 21.7044 14.5794 22.125 14.0625 22.125H11.25V19.2188C11.25 18.7009 10.8303 18.2812 10.3125 18.2812H6.5625C6.04468 18.2812 5.625 18.7009 5.625 19.2188V22.125H2.8125C2.29559 22.125 1.875 21.7044 1.875 21.1875V3.75C1.875 2.71619 2.71619 1.875 3.75 1.875H13.125C14.1588 1.875 15 2.71619 15 3.75V21.1875ZM7.5 10.7812H9.375V12.6562H7.5V10.7812ZM11.25 10.7812H13.125V12.6562H11.25V10.7812ZM3.75 10.7812H5.625V12.6562H3.75V10.7812ZM7.5 14.5312H9.375V16.4062H7.5V14.5312ZM11.25 14.5312H13.125V16.4062H11.25V14.5312ZM20.3438 12.6562H18.4688V10.7812H20.3438V12.6562ZM20.3438 16.4062H18.4688V14.5312H20.3438V16.4062ZM18.4688 18.2812H20.3438V20.1562H18.4688V18.2812ZM3.75 14.5312H5.625V16.4062H3.75V14.5312ZM11.25 6.09375C11.25 6.61157 10.8303 7.03125 10.3125 7.03125H9.375V7.96875C9.375 8.48657 8.95532 8.90625 8.4375 8.90625C7.91968 8.90625 7.5 8.48657 7.5 7.96875V7.03125H6.5625C6.04468 7.03125 5.625 6.61157 5.625 6.09375C5.625 5.57593 6.04468 5.15625 6.5625 5.15625H7.5V4.21875C7.5 3.70093 7.91968 3.28125 8.4375 3.28125C8.95532 3.28125 9.375 3.70093 9.375 4.21875V5.15625H10.3125C10.8303 5.15625 11.25 5.57593 11.25 6.09375Z" fill="#37D1C4"/>
</svg>
