<svg width="40" height="44" viewBox="0 0 40 44" fill="none" xmlns="http://www.w3.org/2000/svg">
<rect width="40" height="40" rx="5" fill="#70D4F3"/>
<g filter="url(#filter0_d)">
<path d="M17.4912 17.538C19.1636 17.538 20.836 17.538 22.5082 17.538L22.5356 17.8809L20.0838 21.5979L17.4501 17.8442L17.4911 17.5382L17.4912 17.538Z" fill="#B3B3B3"/>
<path d="M17.5234 16.6056L17.48 18.7023L13.9229 20.6474V27.7774H19.911H25.8983V20.6473L22.5925 18.5926L22.4109 16.4963L17.5235 16.6055H17.5234V16.6056Z" fill="#F0BA7D"/>
<path d="M15.8798 10.4915C15.8798 10.4915 15.6759 10.0434 15.1283 10.2655C14.5805 10.4873 15.1529 12.7019 15.3622 13.0108C15.5713 13.3196 15.908 13.1235 16.0307 13.1113C16.205 14.4315 16.2206 15.3414 16.749 15.8981C17.2496 16.4251 18.3955 17.4993 18.9992 17.8739C19.4081 17.9603 19.7131 18.011 20.0001 18.0262C20.2869 18.011 20.5922 17.9601 21.0009 17.8739C21.6045 17.4995 22.7507 16.4251 23.2511 15.8981C23.7794 15.3414 23.7951 14.4317 23.9695 13.1113C24.0921 13.1236 24.4289 13.3196 24.638 13.0108C24.8472 12.7019 25.4196 10.4872 24.8719 10.2655C24.3242 10.0433 24.1203 10.4915 24.1203 10.4915C24.1203 10.4915 24.6617 8.75249 23.6994 7.04073C23.04 5.86749 21.5361 5.259 20.0001 5.21436C18.4642 5.259 16.9603 5.86749 16.3009 7.04073C15.3386 8.75256 15.88 10.4915 15.88 10.4915H15.8798Z" fill="#FED298"/>
<path d="M15.7356 19.319L16.5875 18.9835L17.2739 18.3666L19.6978 20.2049H20.3014L22.726 18.3644L24.264 19.3192L26.9367 23.8621L24.82 35.3458C23.2857 35.7713 21.6694 35.9997 19.9995 35.9997C18.6377 35.9997 17.3115 35.8475 16.0362 35.5609L12.2424 24.2251L15.7354 19.3191L15.7356 19.319Z" fill="#15BDB2"/>
<path d="M23.4867 18.7447L22.5081 17.538L20.3016 20.2051L22.1956 22.3096L23.4867 18.7447Z" fill="#21D0C3"/>
<path d="M16.5114 18.7235L17.4912 17.538L19.6978 20.2051L17.7286 22.2879L16.5114 18.7235Z" fill="#21D0C3"/>
<path d="M16.5116 18.7234L10.0257 20.8326C9.76191 20.9182 9.59625 21.1425 9.54253 21.4147L6.80005 34.118C8.08445 35.3326 10.3831 33.3212 11.9815 34.118L12.9297 31.0236C12.9407 30.9881 12.9745 30.9659 13.0114 30.9704C13.0482 30.9747 13.0762 31.0042 13.0782 31.0414L13.2151 34.6757C15.3091 35.5289 17.5994 35.9998 20.0002 35.9998V34.7931L16.5116 18.7234Z" fill="white"/>
<path d="M16.5114 18.7234L15.7686 18.9517L13.8005 22.3097L16.285 22.3876L14.7597 23.256L20.0001 34.7932L16.5117 18.7236L16.5114 18.7234Z" fill="#EEF3F7"/>
<path d="M23.4867 18.7446L29.9745 20.8326C30.2387 20.9176 30.4038 21.1424 30.4575 21.4147L33.2 34.1182C31.9155 35.3329 29.6168 33.3214 28.0183 34.1182L27.07 31.0237C27.0591 30.9882 27.025 30.966 26.9883 30.9705C26.9515 30.9748 26.9238 31.0044 26.9216 31.0415L26.7851 34.6758C24.6911 35.529 22.4008 35.9998 20.0001 35.9998L20 34.7931L23.4867 18.7446Z" fill="#EEF3F7"/>
<path d="M23.4867 18.7447L23.899 18.8701L26.1978 22.3309L23.7133 22.4089L25.2387 23.2774L20 34.7932L23.4866 18.7449V18.7448H23.4867V18.7447Z" fill="white"/>
<path d="M20.7351 34.7177C20.5163 34.7177 20.339 34.8946 20.339 35.1126C20.339 35.3309 20.5165 35.5078 20.7351 35.5078C20.9537 35.5078 21.1311 35.3309 21.1311 35.1126C21.1311 34.8945 20.9537 34.7177 20.7351 34.7177Z" fill="#D9DADA"/>
<path d="M23.6476 11.0093L24.0293 10.996L24.1521 10.5604L24.5116 10.2017C24.7491 8.4138 24.819 5.63118 23.0444 5.71148C23.0444 5.71148 22.8844 3.68254 19.6834 4.08022C16.4822 4.47805 15.0359 6.54454 15.2082 8.26861C15.3804 9.99267 15.311 10.2015 15.311 10.2015L15.6705 10.5604L15.7247 11.0558L16.0387 11.036C16.0387 11.036 16.1371 10.3729 16.2356 10.0812C16.3342 9.78961 16.3033 9.19927 16.3033 9.19927C16.3033 9.19927 20.0843 9.44016 21.1061 8.14043C21.7371 7.33781 23.1864 5.9471 23.2594 7.8731C23.2811 8.44425 23.0687 9.3003 23.4751 9.92335C23.8815 10.5465 23.6475 11.0092 23.6475 11.0092H23.6476V11.0093Z" fill="#666666"/>
<path d="M20.0001 34.793L21.0221 30.0888L20.3276 20.816L20.706 20.6545L20.3015 20.2051H19.6979L19.283 20.644L19.6724 20.8161L18.9952 30.1639L20.0001 34.7931L20.0001 34.793Z" fill="#0F7986"/>
<path d="M20.6999 34.7177C20.5007 34.7177 20.339 34.8788 20.339 35.0774C20.339 35.2762 20.5006 35.4374 20.6999 35.4374C20.899 35.4374 21.0608 35.2763 21.0608 35.0774C21.0608 34.8788 20.899 34.7177 20.6999 34.7177Z" fill="white"/>
<path d="M26.3559 28.7625C25.6535 28.6412 25.1824 27.9734 25.3035 27.2712C25.4248 26.5689 26.0927 26.0975 26.7949 26.2187C27.4973 26.34 27.9684 27.0079 27.8473 27.7104C27.726 28.4126 27.0581 28.8839 26.3558 28.7626L26.3559 28.7625Z" fill="#FEFEFE"/>
<path d="M26.3686 28.6884C25.7071 28.5742 25.2634 27.9456 25.3777 27.2839C25.4919 26.6223 26.1207 26.1786 26.7824 26.2927C27.4439 26.4069 27.8876 27.0359 27.7733 27.6974C27.659 28.3591 27.0302 28.8025 26.3686 28.6883V28.6884Z" fill="#0F7986"/>
<path d="M26.461 28.1536C26.095 28.0905 25.8495 27.7422 25.9126 27.3762C25.9757 27.0102 26.3239 26.7648 26.6898 26.8279C27.0558 26.8911 27.3013 27.2389 27.2381 27.605C27.175 27.971 26.8269 28.2165 26.461 28.1534V28.1536Z" fill="#EBECEC"/>
<path d="M26.54 26.8999L26.8356 26.951L26.9945 26.0306L26.6989 25.9796L26.54 26.8999Z" fill="#FEFEFE"/>
<path d="M16.6419 29.0178L17.1957 28.9079C17.4311 28.8611 17.6259 28.7226 17.7503 28.5367C17.8743 28.3508 17.9282 28.1179 17.8814 27.8825L17.2301 24.6012C16.9842 23.363 16.0156 22.7316 14.9087 22.5916C14.4846 22.538 14.04 22.5575 13.6091 22.6428C13.178 22.7281 12.7601 22.8797 12.3887 23.0911C11.4217 23.6419 10.7699 24.5942 11.0161 25.8344L11.6674 29.1158C11.7142 29.3512 11.853 29.5459 12.0387 29.6702L12.0392 29.6701C12.2251 29.7945 12.4578 29.8481 12.6931 29.8014L13.2466 29.6915L13.2013 29.4632L12.6477 29.5731C12.4751 29.6074 12.3042 29.5679 12.168 29.477L12.1682 29.4769C12.0319 29.3856 11.9301 29.2428 11.8958 29.0704L11.2445 25.789C11.0211 24.6636 11.6183 23.7963 12.5031 23.2926C12.8529 23.0933 13.2473 22.9503 13.6544 22.8696C14.0615 22.7889 14.4807 22.7707 14.8802 22.8212C15.8933 22.9492 16.7793 23.523 17.0021 24.6461L17.6535 27.9275C17.6876 28.1 17.6481 28.2707 17.5571 28.4072C17.4659 28.5433 17.3231 28.6452 17.1504 28.6793L16.5967 28.7892L16.6419 29.0174V29.0177V29.0178Z" fill="#21D0C3"/>
<path d="M17.4058 25.0875L17.3063 24.5863C17.053 23.3097 16.0563 22.659 14.9184 22.5149C14.4861 22.4604 14.0332 22.4799 13.5944 22.567C13.1555 22.6539 12.7294 22.8086 12.3511 23.0239C11.3564 23.5903 10.6865 24.5709 10.9403 25.8497L11.04 26.3509L11.4201 26.2752L11.3206 25.7741C11.1049 24.6872 11.684 23.848 12.5413 23.3598C12.884 23.1648 13.2704 23.0248 13.6696 22.9456C14.0686 22.8664 14.4796 22.8486 14.871 22.898C15.8527 23.022 16.7109 23.5765 16.9264 24.6616L17.0259 25.1628L17.4061 25.0872L17.4058 25.0875Z" fill="#4D4D4D"/>
<path d="M12.8074 29.829L13.1037 29.7701C13.1781 29.8536 13.2932 29.8964 13.4105 29.8732C13.5868 29.8382 13.7013 29.6671 13.6663 29.4907C13.6314 29.3145 13.4601 29.2 13.2839 29.235C13.1663 29.2582 13.0764 29.3419 13.0397 29.4474L12.7437 29.5061L12.8076 29.8289L12.8074 29.829Z" fill="#076673"/>
<path d="M16.8773 29.0212L16.5814 29.0801C16.5446 29.1855 16.4548 29.2691 16.3374 29.2925C16.1611 29.3274 15.99 29.213 15.955 29.0366C15.9201 28.8604 16.0345 28.6892 16.2106 28.6543C16.328 28.6311 16.4432 28.6741 16.5173 28.7574L16.8134 28.6985L16.8773 29.0212Z" fill="#076673"/>
<path d="M13.7743 22.5374L13.6613 21.9682L13.4366 22.0128L13.2123 22.0573L13.3265 22.6322C13.4121 22.6072 13.4987 22.586 13.5862 22.5686C13.6486 22.5562 13.7111 22.546 13.7743 22.5374Z" fill="#666666"/>
<path d="M13.2898 29.5124C13.3431 29.5018 13.3778 29.4498 13.3672 29.3967C13.3566 29.3433 13.305 29.3086 13.2515 29.3191C13.1981 29.3297 13.1635 29.3816 13.1742 29.4348C13.1848 29.488 13.2365 29.5229 13.2898 29.5122V29.5124Z" fill="#0F7986"/>
<path d="M16.2184 28.9298C16.2717 28.9193 16.3062 28.8674 16.2956 28.8143C16.2851 28.7608 16.2335 28.7262 16.18 28.7368C16.1266 28.7473 16.092 28.7992 16.1026 28.8526C16.113 28.9059 16.1649 28.9405 16.2184 28.9298Z" fill="#0F7986"/>
<path d="M26.4252 28.1473C26.079 28.0876 25.8469 27.7585 25.9066 27.4121C25.9663 27.0661 26.2952 26.8338 26.6414 26.8937C26.9875 26.9534 27.2198 27.2825 27.16 27.6285C27.1002 27.9747 26.7711 28.2069 26.425 28.1473H26.4252Z" fill="#FEFEFE"/>
<path d="M16.5147 18.8942C16.5047 18.8943 13.0089 18.9233 13.5994 21.9818L13.2742 22.0439C12.6086 18.5959 16.4998 18.5641 16.5108 18.564L16.5147 18.8942Z" fill="#4D4D4D"/>
<path d="M23.4904 18.5797C24.0608 18.5951 25.1633 18.7506 26.012 19.7829C26.8424 20.793 27.4246 22.6482 26.9893 26.0497L26.6616 26.0083C27.083 22.7161 26.5385 20.9435 25.757 19.9927C24.9935 19.0638 23.9979 18.9239 23.4829 18.91L23.4906 18.5797H23.4904Z" fill="#4D4D4D"/>
</g>
<defs>
<filter id="filter0_d" x="-2" y="0" width="44" height="44" filterUnits="userSpaceOnUse" color-interpolation-filters="sRGB">
<feFlood flood-opacity="0" result="BackgroundImageFix"/>
<feColorMatrix in="SourceAlpha" type="matrix" values="0 0 0 0 0 0 0 0 0 0 0 0 0 0 0 0 0 0 127 0"/>
<feOffset dy="4"/>
<feGaussianBlur stdDeviation="2"/>
<feColorMatrix type="matrix" values="0 0 0 0 0 0 0 0 0 0 0 0 0 0 0 0 0 0 0.05 0"/>
<feBlend mode="normal" in2="BackgroundImageFix" result="effect1_dropShadow"/>
<feBlend mode="normal" in="SourceGraphic" in2="effect1_dropShadow" result="shape"/>
</filter>
</defs>
</svg>
