<svg width="18" height="18" viewBox="0 0 18 18" fill="none" xmlns="http://www.w3.org/2000/svg">
<path d="M16.8697 0H12.0269C11.4026 0 10.8966 0.506002 10.8966 1.13034C10.8966 1.75467 11.4026 2.26067 12.0269 2.26067H14.1407L11.399 5.00262C10.2142 4.14103 8.75745 3.63209 7.18381 3.63209C3.22263 3.63209 0 6.85501 0 10.8159C0 14.7771 3.22263 18 7.18381 18C11.145 18 14.3679 14.7771 14.3679 10.8159C14.3679 9.24255 13.859 7.78577 12.9974 6.60098L15.7393 3.85904V5.97312C15.7393 6.59745 16.2453 7.10345 16.8697 7.10345C17.494 7.10345 18 6.59745 18 5.97312V1.13034C18 0.506002 17.4937 0 16.8697 0ZM7.18381 15.7393C4.46924 15.7393 2.26067 13.5308 2.26067 10.8159C2.26067 8.10133 4.46924 5.89276 7.18381 5.89276C9.89868 5.89276 12.1072 8.10133 12.1072 10.8159C12.1072 13.5308 9.89868 15.7393 7.18381 15.7393Z" fill="#778CFD"/>
</svg>
