<svg width="15" height="23" viewBox="0 0 15 23" fill="none" xmlns="http://www.w3.org/2000/svg">
<path d="M7.50015 0C3.36471 0 0 3.42642 0 7.63808C0 11.441 2.74303 14.6033 6.32009 15.1813V16.7346H3.70828C3.05648 16.7346 2.52822 17.2726 2.52822 17.9364C2.52822 18.6002 3.05648 19.1382 3.70828 19.1382H6.32009V21.7982C6.32009 22.462 6.84835 23 7.50015 23C8.15165 23 8.68022 22.462 8.68022 21.7982V19.1382H11.292C11.9435 19.1382 12.4721 18.6002 12.4721 17.9364C12.4721 17.2726 11.9435 16.7346 11.292 16.7346H8.68022V15.1813C12.257 14.6033 15 11.441 15 7.63808C15 3.42642 11.6356 0 7.50015 0ZM7.50015 12.8729C4.66585 12.8729 2.36012 10.5243 2.36012 7.63808C2.36012 4.75185 4.66585 2.40363 7.50015 2.40363C10.3341 2.40363 12.6399 4.75185 12.6399 7.63808C12.6399 10.5243 10.3341 12.8729 7.50015 12.8729Z" fill="#778CFD"/>
</svg>
