<svg width="40" height="40" viewBox="0 0 40 40" fill="none" xmlns="http://www.w3.org/2000/svg">
<rect width="40" height="40" rx="5" fill="#37D1C4"/>
<g clip-path="url(#clip0)">
<g filter="url(#filter0_d)">
<path d="M19.6942 33.6393C15.7719 33.6393 12.2153 32.0437 9.63921 29.4677C7.06312 26.8917 5.46765 23.335 5.46765 19.4127C5.46765 15.4904 7.0632 11.9338 9.63921 9.35769C12.2152 6.7816 15.7719 5.18613 19.6942 5.18613C23.6165 5.18613 27.1731 6.78167 29.7492 9.35769C32.3253 11.9337 33.9208 15.4904 33.9208 19.4127C33.9208 23.335 32.3252 26.8916 29.7492 29.4677C27.1732 32.0438 23.6165 33.6393 19.6942 33.6393Z" fill="white"/>
<path d="M31.4547 19.4129C31.4547 22.6605 30.1384 25.6005 28.0102 27.7287C25.882 29.857 22.9419 31.1733 19.6944 31.1733C16.4468 31.1733 13.5067 29.857 11.3785 27.7287C9.25029 25.6005 7.93396 22.6605 7.93396 19.4129C7.93396 16.1653 9.25029 13.2252 11.3785 11.097C13.5067 8.96882 16.4468 7.6525 19.6944 7.6525C22.9419 7.6525 25.882 8.96882 28.0102 11.097C30.1384 13.2252 31.4547 16.1653 31.4547 19.4129Z" fill="#F4B500"/>
<path d="M20.7871 19.3555C20.7871 19.7104 20.6432 20.0316 20.4107 20.2642C20.1781 20.4968 19.8568 20.6406 19.502 20.6406C19.1472 20.6406 18.8259 20.4968 18.5933 20.2642C18.3607 20.0316 18.2169 19.7104 18.2169 19.3555C18.2169 19.0007 18.3607 18.6794 18.5933 18.4469C18.8259 18.2143 19.1472 18.0705 19.502 18.0705C19.8568 18.0705 20.1781 18.2143 20.4107 18.4469C20.6432 18.6794 20.7871 19.0007 20.7871 19.3555Z" fill="#052481"/>
<path d="M20.024 16.2063C20.024 17.1378 19.9656 17.9811 19.8712 18.5915C19.7767 19.2019 19.6462 19.5794 19.502 19.5794C19.3579 19.5794 19.2273 19.2019 19.1329 18.5915C19.0384 17.9811 18.98 17.1378 18.98 16.2063C18.98 15.2748 19.1105 14.4316 19.241 13.8212C19.3715 13.2108 19.502 12.8332 19.502 12.8332C19.502 12.8332 19.6326 13.2108 19.763 13.8212C19.8935 14.4316 20.024 15.2749 20.024 16.2063Z" fill="#052481"/>
<path d="M21.8202 17.8034C21.3101 18.3481 20.8056 18.8012 20.4024 19.0936C19.9992 19.386 19.6971 19.5175 19.5919 19.419C19.4867 19.3205 19.5981 19.0105 19.8635 18.589C20.1288 18.1675 20.548 17.6345 21.0581 17.0898C21.5683 16.5451 22.1253 16.1412 22.5549 15.8735C22.9844 15.6057 23.2864 15.4742 23.2864 15.4742C23.2864 15.4742 23.1749 15.7842 22.9359 16.2303C22.6968 16.6764 22.3302 17.2587 21.8202 17.8034Z" fill="#052481"/>
<path d="M20.0946 10.8387C20.0946 10.9884 20.0339 11.124 19.9359 11.2221C19.8377 11.3202 19.7023 11.3808 19.5525 11.3808C19.4028 11.3808 19.2673 11.3201 19.1691 11.2221C19.071 11.124 19.0104 10.9885 19.0104 10.8387C19.0104 10.6891 19.0711 10.5535 19.1691 10.4554C19.2672 10.3573 19.4027 10.2966 19.5525 10.2966C19.7022 10.2966 19.8377 10.3573 19.9359 10.4554C20.0339 10.5535 20.0946 10.6891 20.0946 10.8387Z" fill="white"/>
<path d="M20.0946 27.8451C20.0946 27.9947 20.0339 28.1303 19.9359 28.2284C19.8377 28.3265 19.7023 28.3872 19.5525 28.3872C19.4028 28.3872 19.2673 28.3265 19.1691 28.2284C19.071 28.1304 19.0104 27.9948 19.0104 27.8451C19.0104 27.6954 19.0711 27.5598 19.1691 27.4617C19.2672 27.3636 19.4027 27.3029 19.5525 27.3029C19.7022 27.3029 19.8377 27.3637 19.9359 27.4617C20.0339 27.5598 20.0946 27.6954 20.0946 27.8451Z" fill="white"/>
<path d="M11.0494 18.7997C11.1991 18.7997 11.3347 18.8604 11.4328 18.9584C11.5309 19.0566 11.5915 19.192 11.5915 19.3418C11.5915 19.4915 11.5308 19.627 11.4328 19.7252C11.3347 19.8233 11.1992 19.8839 11.0494 19.8839C10.8997 19.8839 10.7642 19.8232 10.6661 19.7252C10.5679 19.627 10.5073 19.4916 10.5073 19.3418C10.5073 19.1921 10.568 19.0566 10.6661 18.9584C10.7642 18.8603 10.8997 18.7997 11.0494 18.7997Z" fill="white"/>
<path d="M28.0558 18.7997C28.2055 18.7997 28.341 18.8604 28.4391 18.9584C28.5373 19.0566 28.5979 19.192 28.5979 19.3418C28.5979 19.4915 28.5372 19.627 28.4391 19.7252C28.341 19.8233 28.2055 19.8839 28.0558 19.8839C27.9061 19.8839 27.7705 19.8232 27.6724 19.7252C27.5743 19.6271 27.5137 19.4916 27.5137 19.3418C27.5137 19.1921 27.5744 19.0566 27.6724 18.9584C27.7705 18.8603 27.9061 18.7997 28.0558 18.7997Z" fill="white"/>
<path d="M35 27.5C35 29.2949 34.2725 30.9199 33.0962 32.0962C31.9198 33.2725 30.2948 34 28.5 34C26.7051 34 25.0801 33.2725 23.9038 32.0962C22.7275 30.9198 22 29.2948 22 27.5C22 25.7052 22.7275 24.08 23.9038 22.9038C25.0802 21.7275 26.7052 21 28.5 21C30.295 21 31.9199 21.7275 33.0962 22.9038C34.2725 24.08 35 25.705 35 27.5Z" fill="white"/>
<path d="M28.0038 30.4531L26.5018 28.951L24.9999 27.4489L25.6224 26.8266L26.2449 26.2042L27.1243 27.0837L28.0038 27.9631L29.4853 26.4817L30.9668 25.0001L31.5893 25.6224L32.2117 26.2448L30.1078 28.3489L28.0038 30.4531Z" fill="#778CFD"/>
</g>
</g>
<defs>
<filter id="filter0_d" x="1.46765" y="5.18613" width="37.5323" height="36.8139" filterUnits="userSpaceOnUse" color-interpolation-filters="sRGB">
<feFlood flood-opacity="0" result="BackgroundImageFix"/>
<feColorMatrix in="SourceAlpha" type="matrix" values="0 0 0 0 0 0 0 0 0 0 0 0 0 0 0 0 0 0 127 0"/>
<feOffset dy="4"/>
<feGaussianBlur stdDeviation="2"/>
<feColorMatrix type="matrix" values="0 0 0 0 0 0 0 0 0 0 0 0 0 0 0 0 0 0 0.05 0"/>
<feBlend mode="normal" in2="BackgroundImageFix" result="effect1_dropShadow"/>
<feBlend mode="normal" in="SourceGraphic" in2="effect1_dropShadow" result="shape"/>
</filter>
<clipPath id="clip0">
<rect width="40" height="40" fill="white"/>
</clipPath>
</defs>
</svg>
