<svg width="40" height="43" viewBox="0 0 40 43" fill="none" xmlns="http://www.w3.org/2000/svg">
<rect width="40" height="40" rx="5" fill="#FAC678"/>
<g filter="url(#filter0_d)">
<path d="M30.8118 12.6365V32.3626C30.8118 33.8191 29.631 35 28.1745 35H11.8571C10.4006 35 9.21973 33.8191 9.21973 32.3626V12.6365C9.21973 11.18 10.4006 9.99915 11.8571 9.99915H14.8051C14.7963 10.0741 14.7919 10.1493 14.7919 10.2245V11.8623H25.2396V10.2245C25.2399 10.1498 25.2355 10.0754 25.2265 10.0012L25.2396 9.99915H28.1745C29.631 9.99915 30.8118 11.18 30.8118 12.6365Z" fill="#37D1C4"/>
<path d="M14.8051 9.99914C14.8859 9.29215 15.3403 8.68329 15.9952 8.40488L16.9374 8.00335C17.5143 7.7579 17.8888 7.19153 17.8888 6.56465C17.8888 5.70055 18.5893 5 19.4534 5H20.5782C21.4423 5 22.1428 5.70055 22.1428 6.56465C22.1425 7.19153 22.5173 7.75816 23.0942 8.00335L24.0363 8.40488C24.6918 8.68355 25.1464 9.29344 25.2265 10.0012C25.2355 10.0754 25.2399 10.1498 25.2396 10.2245V11.8623H14.7919V10.2245C14.7919 10.1493 14.7963 10.0741 14.8051 9.99914Z" fill="#00ACEA"/>
<path d="M26.9813 24.552H13.0504C12.6862 24.552 12.3911 24.2569 12.3911 23.8927C12.3911 23.5285 12.6862 23.2333 13.0504 23.2333H26.981C27.3452 23.2333 27.6404 23.5285 27.6404 23.8927C27.6404 24.2569 27.3452 24.552 26.981 24.552H26.9813Z" fill="white"/>
<path d="M18.8088 19.3651H13.0504C12.6862 19.3651 12.3911 19.07 12.3911 18.7058C12.3911 18.3416 12.6862 18.0464 13.0504 18.0464H18.8088C19.1727 18.0464 19.4681 18.3416 19.4681 18.7058C19.4681 19.07 19.1727 19.3651 18.8088 19.3651Z" fill="white"/>
<path d="M26.9813 29.3905H13.0504C12.6862 29.3905 12.3911 29.0953 12.3911 28.7311C12.3911 28.3669 12.6862 28.0718 13.0504 28.0718H26.981C27.3452 28.0718 27.6404 28.3669 27.6404 28.7311C27.6404 29.0953 27.3452 29.3905 26.981 29.3905H26.9813Z" fill="white"/>
</g>
<defs>
<filter id="filter0_d" x="1" y="5" width="38" height="38" filterUnits="userSpaceOnUse" color-interpolation-filters="sRGB">
<feFlood flood-opacity="0" result="BackgroundImageFix"/>
<feColorMatrix in="SourceAlpha" type="matrix" values="0 0 0 0 0 0 0 0 0 0 0 0 0 0 0 0 0 0 127 0"/>
<feOffset dy="4"/>
<feGaussianBlur stdDeviation="2"/>
<feColorMatrix type="matrix" values="0 0 0 0 0 0 0 0 0 0 0 0 0 0 0 0 0 0 0.05 0"/>
<feBlend mode="normal" in2="BackgroundImageFix" result="effect1_dropShadow"/>
<feBlend mode="normal" in="SourceGraphic" in2="effect1_dropShadow" result="shape"/>
</filter>
</defs>
</svg>
