<svg width="20" height="20" viewBox="0 0 20 20" fill="none" xmlns="http://www.w3.org/2000/svg">
<g clip-path="url(#clip0)">
<path d="M16.4453 12.9297C16.7689 12.9297 17.0312 12.6674 17.0312 12.3438C17.0312 12.0201 16.7689 11.7578 16.4453 11.7578C16.1217 11.7578 15.8594 12.0201 15.8594 12.3438C15.8594 12.6674 16.1217 12.9297 16.4453 12.9297Z" fill="white"/>
<path d="M8.82812 20C10.1205 20 11.1719 18.9486 11.1719 17.6562V14.1016C11.1719 13.4554 11.6976 12.9297 12.3438 12.9297H13.5746C13.8468 14.2653 15.0305 15.2734 16.4453 15.2734C18.0607 15.2734 19.375 13.9592 19.375 12.3438C19.375 10.7283 18.0607 9.41406 16.4453 9.41406C15.0305 9.41406 13.8468 10.4222 13.5746 11.7578H12.3438C11.0514 11.7578 10 12.8092 10 14.1016V17.6562C10 18.3024 9.4743 18.8281 8.82812 18.8281C8.18195 18.8281 7.65625 18.3024 7.65625 17.6562V14.1016H8.24219C8.56578 14.1016 8.82812 13.8392 8.82812 13.5156V11.6879L12.4161 8.81746C13.1149 8.25848 13.5156 7.42465 13.5156 6.5298V4.10156C13.5156 2.68676 12.5075 1.50305 11.1719 1.23082V0.585938C11.1719 0.262344 10.9095 0 10.5859 0H9.41406C8.4448 0 7.65625 0.788555 7.65625 1.75781C7.65625 2.72707 8.4448 3.51562 9.41406 3.51562H10.5859C10.9095 3.51562 11.1719 3.25328 11.1719 2.92969V2.44453C11.8539 2.68641 12.3438 3.3377 12.3438 4.10156V6.5298C12.3438 7.06672 12.1033 7.56703 11.684 7.90242L11.2593 8.24219H2.88133L2.4566 7.90242C2.03734 7.56699 1.79688 7.06672 1.79688 6.5298V4.10156C1.79688 3.3377 2.28676 2.68641 2.96875 2.44453V2.92969C2.96875 3.25328 3.23109 3.51562 3.55469 3.51562H4.72656C5.69582 3.51562 6.48438 2.72707 6.48438 1.75781C6.48438 0.788555 5.69582 0 4.72656 0H3.55469C3.23109 0 2.96875 0.262344 2.96875 0.585938V1.23082C1.63312 1.50305 0.625 2.68676 0.625 4.10156V6.5298C0.625 7.42469 1.02574 8.25848 1.72449 8.8175L5.3125 11.6879V13.5156C5.3125 13.8392 5.57484 14.1016 5.89844 14.1016H6.48438V17.6562C6.48438 18.9486 7.53578 20 8.82812 20ZM16.4453 10.5859C17.4146 10.5859 18.2031 11.3745 18.2031 12.3438C18.2031 13.313 17.4146 14.1016 16.4453 14.1016C15.4761 14.1016 14.6875 13.313 14.6875 12.3438C14.6875 11.3745 15.4761 10.5859 16.4453 10.5859ZM10 2.34375H9.41406C9.09098 2.34375 8.82812 2.0809 8.82812 1.75781C8.82812 1.43473 9.09098 1.17188 9.41406 1.17188H10V2.34375ZM4.14062 1.17188H4.72656C5.04965 1.17188 5.3125 1.43473 5.3125 1.75781C5.3125 2.0809 5.04965 2.34375 4.72656 2.34375H4.14062V1.17188ZM6.26449 10.9487L4.34617 9.41406H9.79449L7.87617 10.9487C7.73715 11.0599 7.65625 11.2282 7.65625 11.4062V12.9297H6.48438V11.4062C6.48438 11.2282 6.40348 11.0599 6.26449 10.9487Z" fill="white"/>
</g>
<defs>
<clipPath id="clip0">
<rect width="20" height="20" fill="white"/>
</clipPath>
</defs>
</svg>
