<svg width="199" height="70" viewBox="0 0 199 70" fill="none" xmlns="http://www.w3.org/2000/svg">
<path d="M194 0.5H5C2.51472 0.5 0.5 2.51472 0.5 5V65C0.5 67.4853 2.51472 69.5 5 69.5H194C196.485 69.5 198.5 67.4853 198.5 65V5C198.5 2.51472 196.485 0.5 194 0.5Z" stroke="#296C72"/>
<path d="M47.5821 33.45L34.6471 20.481L51.1001 29.928L47.5821 33.45ZM31.2721 19.719C30.8865 19.9088 30.5625 20.2037 30.3374 20.5698C30.1123 20.9359 29.9954 21.3583 30.0001 21.788V47.65C29.9954 48.0797 30.1123 48.502 30.3374 48.8682C30.5625 49.2343 30.8865 49.5292 31.2721 49.719L46.3101 34.719L31.2721 19.719ZM56.1911 32.94L52.7391 30.94L48.8881 34.719L52.7381 38.499L56.2601 36.499C56.5115 36.2734 56.7114 35.9962 56.846 35.6864C56.9807 35.3766 57.047 35.0414 57.0405 34.7037C57.0339 34.366 56.9547 34.0336 56.8081 33.7292C56.6615 33.4249 56.4511 33.1557 56.1911 32.94V32.94ZM34.6471 48.963L51.1001 39.519L47.5781 35.997L34.6471 48.963Z" fill="#296C72"/>
<path d="M73.14 27H75.99C78.23 27 79.74 25.56 79.74 23.5C79.74 21.44 78.23 20 75.99 20H73.14V27ZM73.88 26.36V20.64H75.95C77.81 20.64 79.01 21.82 79.01 23.5C79.01 25.18 77.81 26.36 75.95 26.36H73.88ZM84.4617 27.06C86.5617 27.06 88.1317 25.55 88.1317 23.5C88.1317 21.45 86.5617 19.94 84.4617 19.94C82.3417 19.94 80.7817 21.46 80.7817 23.5C80.7817 25.54 82.3417 27.06 84.4617 27.06ZM84.4617 26.4C82.7717 26.4 81.5117 25.17 81.5117 23.5C81.5117 21.83 82.7717 20.6 84.4617 20.6C86.1417 20.6 87.3917 21.83 87.3917 23.5C87.3917 25.17 86.1417 26.4 84.4617 26.4ZM98.4755 20L96.4255 26.05L94.3655 20H93.6755L91.5855 26.02L89.5655 20H88.8055L91.1655 27H91.9355L93.9955 21.03L96.0455 27H96.8255L99.1855 20H98.4755ZM105.662 20V25.68L101.152 20H100.542V27H101.282V21.32L105.782 27H106.392V20H105.662ZM108.677 27H113.337V26.36H109.417V20H108.677V27ZM117.489 27.06C119.589 27.06 121.159 25.55 121.159 23.5C121.159 21.45 119.589 19.94 117.489 19.94C115.369 19.94 113.809 21.46 113.809 23.5C113.809 25.54 115.369 27.06 117.489 27.06ZM117.489 26.4C115.799 26.4 114.539 25.17 114.539 23.5C114.539 21.83 115.799 20.6 117.489 20.6C119.169 20.6 120.419 21.83 120.419 23.5C120.419 25.17 119.169 26.4 117.489 26.4ZM127.95 27H128.73L125.53 20H124.8L121.6 27H122.37L123.21 25.13H127.11L127.95 27ZM123.48 24.53L125.16 20.77L126.84 24.53H123.48ZM129.888 27H132.738C134.978 27 136.488 25.56 136.488 23.5C136.488 21.44 134.978 20 132.738 20H129.888V27ZM130.628 26.36V20.64H132.698C134.558 20.64 135.758 21.82 135.758 23.5C135.758 25.18 134.558 26.36 132.698 26.36H130.628ZM145.567 20.64V20H140.767V27H141.507V24.03H145.127V23.39H141.507V20.64H145.567ZM150.067 27.06C152.167 27.06 153.737 25.55 153.737 23.5C153.737 21.45 152.167 19.94 150.067 19.94C147.947 19.94 146.387 21.46 146.387 23.5C146.387 25.54 147.947 27.06 150.067 27.06ZM150.067 26.4C148.377 26.4 147.117 25.17 147.117 23.5C147.117 21.83 148.377 20.6 150.067 20.6C151.747 20.6 152.997 21.83 152.997 23.5C152.997 25.17 151.747 26.4 150.067 26.4ZM160.986 27L159.276 24.6C160.296 24.27 160.876 23.5 160.876 22.4C160.876 20.9 159.796 20 158.016 20H155.396V27H156.136V24.78H158.016C158.216 24.78 158.396 24.77 158.576 24.75L160.176 27H160.986ZM157.996 24.15H156.136V20.64H157.996C159.396 20.64 160.136 21.28 160.136 22.4C160.136 23.5 159.396 24.15 157.996 24.15Z" fill="#296C72"/>
<path d="M80.896 46.504C80.24 46.856 79.584 46.984 78.88 46.984C76.736 46.984 75.248 45.496 75.248 43.4C75.248 41.272 76.736 39.816 78.912 39.816C80.048 39.816 80.992 40.216 81.808 41.08L83.472 39.544C82.384 38.28 80.752 37.608 78.784 37.608C75.216 37.608 72.624 40.024 72.624 43.4C72.624 46.776 75.216 49.192 78.736 49.192C80.336 49.192 82.032 48.696 83.264 47.768V43.224H80.896V46.504ZM89.5918 49.128C92.3278 49.128 94.3118 47.288 94.3118 44.696C94.3118 42.104 92.3278 40.264 89.5918 40.264C86.8558 40.264 84.8558 42.104 84.8558 44.696C84.8558 47.288 86.8558 49.128 89.5918 49.128ZM89.5918 47.08C88.3438 47.08 87.3838 46.184 87.3838 44.696C87.3838 43.208 88.3438 42.312 89.5918 42.312C90.8398 42.312 91.7838 43.208 91.7838 44.696C91.7838 46.184 90.8398 47.08 89.5918 47.08ZM100.076 49.128C102.812 49.128 104.796 47.288 104.796 44.696C104.796 42.104 102.812 40.264 100.076 40.264C97.3401 40.264 95.3401 42.104 95.3401 44.696C95.3401 47.288 97.3401 49.128 100.076 49.128ZM100.076 47.08C98.8281 47.08 97.8681 46.184 97.8681 44.696C97.8681 43.208 98.8281 42.312 100.076 42.312C101.324 42.312 102.268 43.208 102.268 44.696C102.268 46.184 101.324 47.08 100.076 47.08ZM112.977 40.392V41.496C112.321 40.664 111.329 40.264 110.129 40.264C107.745 40.264 105.825 41.912 105.825 44.424C105.825 46.936 107.745 48.584 110.129 48.584C111.249 48.584 112.193 48.232 112.849 47.512V47.88C112.849 49.432 112.081 50.232 110.321 50.232C109.217 50.232 108.017 49.848 107.281 49.256L106.289 51.048C107.297 51.832 108.881 52.232 110.513 52.232C113.617 52.232 115.345 50.76 115.345 47.56V40.392H112.977ZM110.625 46.536C109.312 46.536 108.353 45.688 108.353 44.424C108.353 43.16 109.312 42.312 110.625 42.312C111.937 42.312 112.881 43.16 112.881 44.424C112.881 45.688 111.937 46.536 110.625 46.536ZM117.668 49H120.164V37.128H117.668V49ZM130.912 44.728C130.912 41.96 128.96 40.264 126.432 40.264C123.808 40.264 121.84 42.12 121.84 44.696C121.84 47.256 123.776 49.128 126.752 49.128C128.304 49.128 129.504 48.648 130.304 47.736L128.976 46.296C128.384 46.856 127.728 47.128 126.816 47.128C125.504 47.128 124.592 46.472 124.352 45.4H130.864C130.88 45.192 130.912 44.92 130.912 44.728ZM126.448 42.152C127.568 42.152 128.384 42.856 128.56 43.944H124.32C124.496 42.84 125.312 42.152 126.448 42.152ZM142.129 37.8H137.281V49H139.873V45.912H142.129C145.121 45.912 146.993 44.36 146.993 41.864C146.993 39.352 145.121 37.8 142.129 37.8ZM141.985 43.8H139.873V39.912H141.985C143.569 39.912 144.369 40.632 144.369 41.864C144.369 43.08 143.569 43.8 141.985 43.8ZM148.824 49H151.32V37.128H148.824V49ZM157.108 40.264C155.732 40.264 154.34 40.632 153.396 41.304L154.292 43.048C154.916 42.552 155.86 42.248 156.772 42.248C158.116 42.248 158.756 42.872 158.756 43.944H156.772C154.148 43.944 153.076 45 153.076 46.52C153.076 48.008 154.276 49.128 156.292 49.128C157.556 49.128 158.452 48.712 158.916 47.928V49H161.252V44.088C161.252 41.48 159.732 40.264 157.108 40.264ZM156.916 47.448C156.036 47.448 155.508 47.032 155.508 46.408C155.508 45.832 155.876 45.4 157.044 45.4H158.756V46.28C158.468 47.064 157.748 47.448 156.916 47.448ZM169.499 40.392L167.067 46.232L164.651 40.392H162.075L165.803 49.064L165.771 49.144C165.435 49.912 165.051 50.216 164.363 50.216C163.867 50.216 163.339 50.008 162.955 49.672L162.043 51.448C162.603 51.944 163.563 52.232 164.443 52.232C165.995 52.232 167.179 51.608 168.011 49.528L171.899 40.392H169.499Z" fill="#296C72"/>
</svg>
