<svg width="200" height="70" viewBox="0 0 200 70" fill="none" xmlns="http://www.w3.org/2000/svg">
<g clip-path="url(#clip0_659_2888)">
<path d="M194.017 0.5H5C2.51472 0.5 0.5 2.51472 0.5 5V65C0.5 67.4853 2.51472 69.5 5 69.5H194.017C196.502 69.5 198.517 67.4853 198.517 65V5C198.517 2.51472 196.502 0.5 194.017 0.5Z" stroke="#296C72"/>
<path d="M51.077 35.853C51.0507 34.6882 51.3502 33.5393 51.942 32.5357C52.5337 31.5321 53.3941 30.7138 54.426 30.173C53.7754 29.2707 52.9246 28.5315 51.9403 28.0132C50.956 27.495 49.8651 27.2118 48.753 27.186C46.375 26.998 43.777 28.572 42.826 28.572C41.826 28.572 39.517 27.253 37.709 27.253C33.972 27.314 30 30.234 30 36.175C30.0172 38.0286 30.343 39.8664 30.964 41.613C31.822 44.071 34.916 50.1 38.144 50C39.832 49.96 41.024 48.8 43.221 48.8C45.351 48.8 46.456 50 48.338 50C51.593 49.953 54.393 44.474 55.21 42.01C53.9872 41.5113 52.9409 40.6593 52.2049 39.5629C51.4689 38.4665 51.0765 37.1755 51.078 35.855L51.077 35.853ZM47.286 24.853C47.8779 24.2011 48.3267 23.4325 48.6037 22.5967C48.8806 21.7609 48.9795 20.8763 48.894 20C47.1404 20.1871 45.5191 21.0202 44.346 22.337C43.7449 22.979 43.2824 23.738 42.9873 24.5665C42.6923 25.3951 42.571 26.2755 42.631 27.153C43.5345 27.1723 44.4294 26.9736 45.2399 26.5738C46.0503 26.174 46.7525 25.5847 47.287 24.856L47.286 24.853Z" fill="#296C72"/>
<path d="M71.1566 27H74.0066C76.2466 27 77.7566 25.56 77.7566 23.5C77.7566 21.44 76.2466 20 74.0066 20H71.1566V27ZM71.8966 26.36V20.64H73.9666C75.8266 20.64 77.0266 21.82 77.0266 23.5C77.0266 25.18 75.8266 26.36 73.9666 26.36H71.8966ZM82.4783 27.06C84.5783 27.06 86.1483 25.55 86.1483 23.5C86.1483 21.45 84.5783 19.94 82.4783 19.94C80.3583 19.94 78.7983 21.46 78.7983 23.5C78.7983 25.54 80.3583 27.06 82.4783 27.06ZM82.4783 26.4C80.7883 26.4 79.5283 25.17 79.5283 23.5C79.5283 21.83 80.7883 20.6 82.4783 20.6C84.1583 20.6 85.4083 21.83 85.4083 23.5C85.4083 25.17 84.1583 26.4 82.4783 26.4ZM96.4921 20L94.4421 26.05L92.3821 20H91.6921L89.6021 26.02L87.5821 20H86.8221L89.1821 27H89.9521L92.0121 21.03L94.0621 27H94.8421L97.2021 20H96.4921ZM103.679 20V25.68L99.1689 20H98.5589V27H99.2989V21.32L103.799 27H104.409V20H103.679ZM106.694 27H111.354V26.36H107.434V20H106.694V27ZM115.506 27.06C117.606 27.06 119.176 25.55 119.176 23.5C119.176 21.45 117.606 19.94 115.506 19.94C113.386 19.94 111.826 21.46 111.826 23.5C111.826 25.54 113.386 27.06 115.506 27.06ZM115.506 26.4C113.816 26.4 112.556 25.17 112.556 23.5C112.556 21.83 113.816 20.6 115.506 20.6C117.186 20.6 118.436 21.83 118.436 23.5C118.436 25.17 117.186 26.4 115.506 26.4ZM125.967 27H126.747L123.547 20H122.817L119.617 27H120.387L121.227 25.13H125.127L125.967 27ZM121.497 24.53L123.177 20.77L124.857 24.53H121.497ZM127.905 27H130.755C132.995 27 134.505 25.56 134.505 23.5C134.505 21.44 132.995 20 130.755 20H127.905V27ZM128.645 26.36V20.64H130.715C132.575 20.64 133.775 21.82 133.775 23.5C133.775 25.18 132.575 26.36 130.715 26.36H128.645ZM143.584 20.64V20H138.784V27H139.524V24.03H143.144V23.39H139.524V20.64H143.584ZM148.084 27.06C150.184 27.06 151.754 25.55 151.754 23.5C151.754 21.45 150.184 19.94 148.084 19.94C145.964 19.94 144.404 21.46 144.404 23.5C144.404 25.54 145.964 27.06 148.084 27.06ZM148.084 26.4C146.394 26.4 145.134 25.17 145.134 23.5C145.134 21.83 146.394 20.6 148.084 20.6C149.764 20.6 151.014 21.83 151.014 23.5C151.014 25.17 149.764 26.4 148.084 26.4ZM159.002 27L157.292 24.6C158.312 24.27 158.892 23.5 158.892 22.4C158.892 20.9 157.812 20 156.032 20H153.412V27H154.152V24.78H156.032C156.232 24.78 156.412 24.77 156.592 24.75L158.192 27H159.002ZM156.012 24.15H154.152V20.64H156.012C157.412 20.64 158.152 21.28 158.152 22.4C158.152 23.5 157.412 24.15 156.012 24.15Z" fill="#296C72"/>
<path d="M79.7126 49H82.4326L77.4246 37.8H74.8646L69.8726 49H72.5286L73.5206 46.6H78.7206L79.7126 49ZM74.3526 44.632L76.1286 40.344L77.9046 44.632H74.3526ZM88.5066 40.264C87.3546 40.264 86.4266 40.632 85.8026 41.384V40.392H83.4186V52.104H85.9146V48.088C86.5546 48.792 87.4346 49.128 88.5066 49.128C90.9226 49.128 92.7946 47.4 92.7946 44.696C92.7946 41.992 90.9226 40.264 88.5066 40.264ZM88.0746 47.08C86.8266 47.08 85.8826 46.184 85.8826 44.696C85.8826 43.208 86.8266 42.312 88.0746 42.312C89.3226 42.312 90.2666 43.208 90.2666 44.696C90.2666 46.184 89.3226 47.08 88.0746 47.08ZM99.5535 40.264C98.4015 40.264 97.4735 40.632 96.8495 41.384V40.392H94.4655V52.104H96.9615V48.088C97.6015 48.792 98.4815 49.128 99.5535 49.128C101.969 49.128 103.841 47.4 103.841 44.696C103.841 41.992 101.969 40.264 99.5535 40.264ZM99.1215 47.08C97.8735 47.08 96.9295 46.184 96.9295 44.696C96.9295 43.208 97.8735 42.312 99.1215 42.312C100.369 42.312 101.313 43.208 101.313 44.696C101.313 46.184 100.369 47.08 99.1215 47.08ZM113.9 49.192C117.1 49.192 118.652 47.592 118.652 45.72C118.652 41.608 112.14 43.032 112.14 40.968C112.14 40.264 112.732 39.688 114.268 39.688C115.26 39.688 116.332 39.976 117.372 40.568L118.172 38.6C117.132 37.944 115.692 37.608 114.284 37.608C111.1 37.608 109.564 39.192 109.564 41.096C109.564 45.256 116.076 43.816 116.076 45.912C116.076 46.6 115.452 47.112 113.916 47.112C112.572 47.112 111.164 46.632 110.22 45.944L109.34 47.896C110.332 48.664 112.124 49.192 113.9 49.192ZM125.127 46.824C124.855 47.032 124.487 47.144 124.119 47.144C123.447 47.144 123.047 46.744 123.047 46.008V42.504H125.191V40.584H123.047V38.488H120.551V40.584H119.223V42.504H120.551V46.04C120.551 48.088 121.735 49.128 123.767 49.128C124.535 49.128 125.287 48.952 125.799 48.584L125.127 46.824ZM131.03 49.128C133.766 49.128 135.75 47.288 135.75 44.696C135.75 42.104 133.766 40.264 131.03 40.264C128.294 40.264 126.294 42.104 126.294 44.696C126.294 47.288 128.294 49.128 131.03 49.128ZM131.03 47.08C129.782 47.08 128.822 46.184 128.822 44.696C128.822 43.208 129.782 42.312 131.03 42.312C132.278 42.312 133.222 43.208 133.222 44.696C133.222 46.184 132.278 47.08 131.03 47.08ZM139.803 41.528V40.392H137.419V49H139.915V44.936C139.915 43.288 140.827 42.536 142.203 42.536C142.395 42.536 142.555 42.552 142.763 42.568V40.264C141.435 40.264 140.411 40.696 139.803 41.528ZM152.601 44.728C152.601 41.96 150.649 40.264 148.121 40.264C145.497 40.264 143.529 42.12 143.529 44.696C143.529 47.256 145.465 49.128 148.441 49.128C149.993 49.128 151.193 48.648 151.993 47.736L150.665 46.296C150.073 46.856 149.417 47.128 148.505 47.128C147.193 47.128 146.281 46.472 146.041 45.4H152.553C152.569 45.192 152.601 44.92 152.601 44.728ZM148.137 42.152C149.257 42.152 150.073 42.856 150.249 43.944H146.009C146.185 42.84 147.001 42.152 148.137 42.152Z" fill="#296C72"/>
</g>
<defs>
<clipPath id="clip0_659_2888">
<rect width="199.017" height="70" fill="white"/>
</clipPath>
</defs>
</svg>
